<svg width="300" height="37"><path d="M68.151 13.51c5.132 0 8.302 2.113 8.377 5.886v2.566c0 4.076-2.792 5.812-7.849 5.812H50.415v8.905h-7.019v-23.17Zm28.755-.982 17.886 24.151h-8.301l-3.699-5.132H81.208l3.698-3.924h14.943l-7.17-9.887 4.227-5.208Zm88.377 8.755v3.924H171.17v7.095h24.23v4.377h-31.325V21.283h21.208Zm-159.019-7.85c3.849 0 6.038 1.963 6.717 4.076H7.094v4.982H27.17c4 .226 6.49 1.962 6.49 5.207v3.698c0 3.547-2.113 5.208-6.415 5.208H6.792c-3.924 0-6.113-1.51-6.792-4.378h27.321v-5.283H7.019c-3.774 0-6.34-1.736-6.34-4.754V18.49c0-3.472 2.491-5.057 6.793-5.057ZM231.92 25.36l15.33 11.245h-11.1l-9.81-7.17c1.81-1.358 3.7-2.793 5.58-4.075ZM300 0c-11.09.981-54.49 6.34-84.68 36.604h-11.17l1.28-1.208C211.7 29.283 239.62 3.472 300 0ZM147.396 13.434c3.774 0 6.415 1.358 7.095 4.075h-26.265v14.642h26.265c-.755 3.094-2.34 4.377-6.868 4.377h-19.849c-3.397 0-6.642-1.358-6.642-5.056V18.491c0-3.699 3.245-5.057 6.642-5.057Zm-80.302 4H50.491l-.076 6.038h16.981c2.717 0 3.019-.906 3.019-2.566h.076v-.982c0-1.584-.378-2.49-3.397-2.49Zm148.826-3.925 8 5.736a98.944 98.944 0 0 0-6.03 3.774l-12.98-9.51h11.01Zm-19.47 0v4.076h-31.62v-4.076h31.62Z"/></svg>